<svg xmlns="http://www.w3.org/2000/svg" width="1200" height="720" viewBox="0 0 1200 720"><metadata>{"axes": ["coverage", "risk"], "caption": "This curve is the recorded development risk-coverage surface, not the locked-test abstention result.", "evidence_stage": "PRELIMINARY", "figure_id": "risk_coverage_development", "generator_version": "phase17-publication-bundle-v2", "git_commit": "631ec7c988357cb22e690ef7273a4ccfe2c3152f", "git_dirty_at_generation": true, "n": 20, "population": "formal TRAIN/VALIDATION development", "required": true, "scientific_question": "How did selective risk change with development coverage?", "source_artifacts": [{"path": "research/runs/formal_cpu_20260922/phase12/calibration_abstention.json", "registered_runs": ["run_20260922T080913Z_8ff64696", "run_20260922T114022Z_ff24f7f7"], "registration_status": "HASH_VERIFIED_REGISTERED", "sha256": "bf1f9078386f35619d5188eabb07e8345f168cf0717565180cb0bca4c42520a3"}, {"path": "research/runs/formal_cpu_20260922/figure_sources/abstention.json", "registered_runs": ["run_20260922T083143Z_66e6c1cf"], "registration_status": "HASH_VERIFIED_REGISTERED", "sha256": "47972571c81d19f2a1f1843ca127cc0c24090c785b1ca7f2be773872e836ea9f"}], "status": "READY", "title": "Development risk-coverage curve"}</metadata><rect x="0" y="0" width="1200" height="720" fill="#ffffff" stroke="none" opacity="1"/><text x="55" y="46" text-anchor="start" font-family="Arial, sans-serif" font-size="26px" font-weight="700" fill="#172033">Development risk-coverage curve</text><text x="55" y="75" text-anchor="start" font-family="Arial, sans-serif" font-size="13px" font-weight="400" fill="#526070">risk_coverage_development · PRELIMINARY · population: formal TRAIN/VALIDATION development</text><line x1="110" y1="565" x2="1110" y2="565" stroke="#526070" stroke-width="1"/><line x1="110" y1="115" x2="110" y2="565" stroke="#526070" stroke-width="1"/><line x1="110" y1="565" x2="1110" y2="565" stroke="#526070" stroke-width="1"/><line x1="110" y1="115" x2="110" y2="565" stroke="#526070" stroke-width="1"/><circle cx="110" cy="565" r="4" fill="#2563eb"/><circle cx="162.632" cy="565" r="4" fill="#2563eb"/><circle cx="215.263" cy="565" r="4" fill="#2563eb"/><circle cx="267.895" cy="562.188" r="4" fill="#2563eb"/><circle cx="320.526" cy="562.75" r="4" fill="#2563eb"/><circle cx="373.158" cy="563.125" r="4" fill="#2563eb"/><circle cx="425.789" cy="563.393" r="4" fill="#2563eb"/><circle cx="478.421" cy="563.594" r="4" fill="#2563eb"/><circle cx="531.053" cy="563.75" r="4" fill="#2563eb"/><circle cx="583.684" cy="563.875" r="4" fill="#2563eb"/><circle cx="636.316" cy="563.977" r="4" fill="#2563eb"/><circle cx="688.947" cy="563.125" r="4" fill="#2563eb"/><circle cx="741.579" cy="560.673" r="4" fill="#2563eb"/><circle cx="794.211" cy="560.982" r="4" fill="#2563eb"/><circle cx="846.842" cy="545.5" r="4" fill="#2563eb"/><circle cx="899.474" cy="521.406" r="4" fill="#2563eb"/><circle cx="952.105" cy="498.162" r="4" fill="#2563eb"/><circle cx="1004.74" cy="477.5" r="4" fill="#2563eb"/><circle cx="1057.37" cy="459.013" r="4" fill="#2563eb"/><circle cx="1110" cy="441.404" r="4" fill="#2563eb"/><polyline points="110,565 162.632,565 215.263,565 267.895,562.188 320.526,562.75 373.158,563.125 425.789,563.393 478.421,563.594 531.053,563.75 583.684,563.875 636.316,563.977 688.947,563.125 741.579,560.673 794.211,560.982 846.842,545.5 899.474,521.406 952.105,498.162 1004.74,477.5 1057.37,459.013 1110,441.404" fill="none" stroke="#2563eb" stroke-width="3"/><line x1="120" y1="94" x2="142" y2="94" stroke="#2563eb" stroke-width="3"/><text x="150" y="99" text-anchor="start" font-family="Arial, sans-serif" font-size="12px" font-weight="400" fill="#172033">development risk</text><text x="110" y="590" text-anchor="middle" font-family="Arial, sans-serif" font-size="11px" font-weight="400" fill="#172033">0.049937578027465…</text><text x="1110" y="590" text-anchor="middle" font-family="Arial, sans-serif" font-size="11px" font-weight="400" fill="#172033">1.0</text><text x="610" y="688" text-anchor="middle" font-family="Arial, sans-serif" font-size="14px" font-weight="400" fill="#172033">coverage</text><text x="24" y="340" text-anchor="middle" font-family="Arial, sans-serif" font-size="14px" font-weight="400" fill="#172033" transform="rotate(-90 24 340)">risk</text><text x="55" y="646" text-anchor="start" font-family="Arial, sans-serif" font-size="12px" font-weight="400" fill="#526070">This curve is the recorded development risk-coverage surface, not the locked-test abstention result.</text><text x="55" y="668" text-anchor="start" font-family="Arial, sans-serif" font-size="11px" font-weight="400" fill="#697586">n=20 · source hashes: 2 · generator=phase17-publication-bundle-v2 · git=631ec7c98835</text></svg>
